<svg width="141" height="141" viewBox="0 0 141 141" fill="none" xmlns="http://www.w3.org/2000/svg">
<circle cx="70.5" cy="70.5" r="70.5" fill="#4E9F3D"/>
<g clip-path="url(#clip0_218_251)">
<path d="M85.923 95.1547C85.6511 95.0449 85.356 94.9814 85.0435 94.9814C84.7311 94.9814 84.436 95.0449 84.164 95.1547C83.8921 95.2703 83.6433 95.432 83.4408 95.64L83.4234 95.6516C83.3077 95.7672 83.1977 95.9001 83.1109 96.0445C83.0647 96.1196 83.0184 96.2005 82.9779 96.2872H79.3268V93.1208C78.7655 93.3809 78.1811 93.5773 77.5852 93.6986C77.481 93.7218 77.3826 93.7391 77.2785 93.7564V97.3041C77.2785 97.5872 77.3942 97.8415 77.5794 98.0264C77.7645 98.2113 78.0191 98.3268 78.3026 98.3268H83.0126C83.0473 98.3962 83.0878 98.4655 83.1341 98.5348C83.2151 98.6562 83.3077 98.7717 83.4118 98.8757L83.4292 98.8931C83.6375 99.1011 83.8921 99.2744 84.1756 99.39C84.4476 99.4998 84.7426 99.5633 85.0551 99.5633C85.356 99.5633 85.6511 99.5055 85.9172 99.3957L85.9346 99.39C86.2181 99.2744 86.4669 99.1011 86.681 98.8931C86.8893 98.6851 87.0629 98.4308 87.1786 98.1477C87.2886 97.8761 87.3522 97.5815 87.3522 97.2694C87.3522 96.9632 87.2886 96.6685 87.1786 96.3912C87.0629 96.1081 86.8893 95.8538 86.681 95.6458C86.4611 95.4436 86.2065 95.2703 85.923 95.1547ZM69.2299 73.4872H64.9482L64.3348 75.498H60.4813L65.0813 63.2948H69.2126L73.7952 75.498H69.8433L69.2299 73.4872ZM68.4314 70.8409L67.0948 66.4554L65.7525 70.8409H68.4314ZM74.8599 63.2891H78.6498V75.4922H74.8599V63.2891ZM71.9726 50.7797C71.3477 51.2304 70.7691 51.8371 70.2657 52.6229C70.2425 52.6633 70.2078 52.698 70.1673 52.7211C70.0111 52.8193 69.8028 52.7731 69.7044 52.6229C69.201 51.8371 68.6224 51.2304 67.9975 50.7797C67.3263 50.2944 66.603 49.9881 65.8566 49.8379H65.845C65.116 49.6877 64.3696 49.6877 63.6521 49.8148C62.8941 49.9477 62.1592 50.225 61.4996 50.6064C60.8458 50.9877 60.2556 51.4788 59.7638 52.0451C59.2893 52.594 58.9074 53.2238 58.6586 53.8998C58.6181 54.0038 58.5834 54.1136 58.5487 54.2292C58.5198 54.3332 58.485 54.4487 58.4619 54.5643C58.433 54.7145 58.3057 54.8243 58.1437 54.8301C57.3683 54.9456 56.5987 55.2288 55.8813 55.6506C55.1522 56.0839 54.4752 56.6733 53.8908 57.3782C53.3122 58.0831 52.8262 58.9151 52.479 59.8396C52.155 60.7063 51.9582 61.6597 51.9177 62.6708C51.912 62.8037 51.912 62.9308 51.912 63.0637C51.912 63.1851 51.9177 63.3122 51.9177 63.4451C51.9235 63.5548 51.8772 63.6704 51.7789 63.7397C51.3044 64.0806 50.8762 64.4331 50.4943 64.7971C50.1067 65.1727 49.7653 65.5598 49.4702 65.9585C48.9899 66.6114 48.637 67.2932 48.3997 67.9808C48.1509 68.6973 48.0294 69.4311 48.0179 70.1533C48.0121 70.8467 48.1047 71.5343 48.3014 72.1987C48.4981 72.8748 48.799 73.5334 49.1867 74.1459C49.4065 74.4984 49.6553 74.845 49.9273 75.1686C50.205 75.498 50.5059 75.81 50.8299 76.1047C50.9109 76.1798 50.9572 76.3011 50.9341 76.4167C50.8415 76.8558 50.7952 77.2891 50.7779 77.7167C50.7663 78.1558 50.7894 78.5892 50.8473 79.011C50.9572 79.7852 51.1829 80.5248 51.5011 81.2066C51.8367 81.9347 52.2765 82.5991 52.7857 83.1827C53.2775 83.7547 53.8387 84.2516 54.4405 84.6619C55.0481 85.0779 55.6903 85.4014 56.3499 85.6268C56.645 85.725 56.9459 85.8059 57.2526 85.8637C57.5419 85.9215 57.8312 85.9561 58.1147 85.9677C58.2709 85.9619 58.4156 86.0717 58.4503 86.2335C58.6008 86.9211 58.8785 87.5682 59.2604 88.1518C59.6596 88.7642 60.163 89.3074 60.7416 89.7581C61.4707 90.3243 62.327 90.7519 63.2297 90.9772C64.0803 91.191 64.9771 91.2314 65.8566 91.0465C66.6435 90.8848 67.4073 90.5496 68.1132 90.0181C68.7613 89.5269 69.363 88.8682 69.8664 88.0131C69.8953 87.9611 69.9416 87.9207 69.9995 87.8918C70.1615 87.8051 70.364 87.8686 70.4508 88.0304C70.8674 88.8047 71.3766 89.4229 71.9436 89.8909C72.557 90.3936 73.234 90.7345 73.9457 90.931C74.8541 91.1794 75.803 91.1794 76.723 90.9888C77.7067 90.7865 78.6556 90.359 79.4714 89.7696C80.1137 89.3131 80.6808 88.7527 81.1321 88.1171C81.5603 87.522 81.8785 86.8575 82.0637 86.1584C82.0868 86.0255 82.1909 85.9099 82.3356 85.8868C83.1862 85.7366 84.0252 85.3841 84.7947 84.8583C85.5643 84.3325 86.2644 83.6392 86.8372 82.8129C87.3638 82.0502 87.7862 81.172 88.0581 80.2128C88.3127 79.3172 88.4342 78.3465 88.3937 77.3238C88.3821 77.2082 88.4342 77.0927 88.5384 77.0234C89.036 76.6825 89.4757 76.3242 89.8692 75.9602C90.2684 75.5789 90.6214 75.1859 90.9223 74.7757C91.3852 74.1517 91.7265 73.5046 91.9638 72.8401C92.2068 72.1525 92.3341 71.4534 92.3572 70.7542C92.3746 70.0782 92.2936 69.408 92.12 68.7493C91.9464 68.0848 91.6745 67.4434 91.3215 66.8367L91.3099 66.8252C91.0785 66.4265 90.8065 66.0452 90.5057 65.6754C90.2048 65.3056 89.8634 64.9589 89.4989 64.6296C89.4121 64.5544 89.3658 64.4331 89.3889 64.3118C89.4699 63.9131 89.522 63.5144 89.5394 63.1215C89.5567 62.7228 89.5452 62.3299 89.5047 61.9428C89.4179 61.1396 89.2038 60.377 88.8913 59.6663C88.5615 58.9151 88.1218 58.2218 87.6068 57.6151C87.1092 57.0257 86.5364 56.5115 85.923 56.0839C85.3097 55.6563 84.6559 55.3212 83.9904 55.0959L83.9731 55.0901C83.6201 54.9687 83.2614 54.8821 82.9084 54.8243H82.8969C82.5497 54.7665 82.2025 54.7434 81.8611 54.7492C81.7049 54.7607 81.5545 54.6567 81.514 54.495C81.4561 54.2581 81.3809 54.0269 81.2941 53.8016C81.2015 53.5705 81.0974 53.3451 80.9759 53.1198C80.6634 52.542 80.2526 52.0104 79.7723 51.554C79.2805 51.0859 78.7192 50.6873 78.1175 50.381C77.4984 50.069 76.8214 49.8494 76.127 49.7512C75.4674 49.6588 74.7904 49.6703 74.125 49.809C73.3786 49.9881 72.6438 50.2944 71.9726 50.7797ZM81.433 57.2857C81.4735 57.1586 81.5892 57.0604 81.7338 57.0488C81.9769 57.0315 82.2257 57.043 82.4745 57.0835C82.7291 57.1239 82.9837 57.1875 83.2382 57.2742C83.7185 57.436 84.1987 57.6844 84.6443 57.9964C85.084 58.3027 85.5006 58.6782 85.8594 59.1058L85.8652 59.1173C86.2413 59.5623 86.5595 60.0592 86.7967 60.6023C87.0224 61.1108 87.1728 61.6539 87.2365 62.2259C87.277 62.6073 87.277 63.0059 87.2307 63.4104C87.1902 63.786 87.1034 64.1731 86.9703 64.5602L86.9645 64.5833C86.8835 64.826 86.8893 65.0802 86.9645 65.3056C87.0455 65.5367 87.196 65.7447 87.4101 65.8834L87.4274 65.8949C87.8325 66.1954 88.1912 66.5247 88.5037 66.8714C88.8277 67.2239 89.1054 67.6052 89.3369 67.9981C89.5914 68.4315 89.7882 68.8822 89.9097 69.3444C90.037 69.8009 90.0948 70.2631 90.0775 70.7196C90.0659 71.1934 89.9733 71.6671 89.8055 72.1352C89.6435 72.5801 89.4063 73.0192 89.0938 73.4468L89.0881 73.4526C88.8045 73.8397 88.4458 74.221 88.0234 74.585C87.6184 74.9317 87.1497 75.2611 86.6116 75.5789L86.5942 75.5904C86.3801 75.7118 86.2239 75.8966 86.1313 76.1104C86.0387 76.3242 86.0098 76.5611 86.0561 76.7922L86.0619 76.8385C86.1718 77.7225 86.1198 78.5661 85.9404 79.3346C85.7436 80.1724 85.4023 80.9235 84.9567 81.5649C84.6153 82.056 84.2219 82.4778 83.7995 82.8129C83.3655 83.1596 82.8969 83.4138 82.4166 83.5698H82.4108C82.2372 83.6218 82.0463 83.5236 81.9942 83.3503C81.3404 81.2182 80.2121 80.5306 78.3026 79.5483L78.2621 79.5252C77.996 79.3981 77.7067 79.3866 77.4463 79.4674C77.1859 79.5483 76.9603 79.7275 76.8272 79.9875L76.8098 80.0221C76.6825 80.2879 76.6709 80.5768 76.752 80.8368C76.8387 81.0968 77.0239 81.328 77.2901 81.4666C78.887 82.2813 80.0674 82.8996 80.0501 84.8988C80.0443 85.4939 79.8591 86.0717 79.5467 86.5917C79.2169 87.1406 78.7424 87.6318 78.1927 88.0304C77.6314 88.4349 77.0008 88.7296 76.3527 88.874C75.7336 89.0185 75.0971 89.0243 74.5011 88.8625C73.4943 88.5851 72.8405 87.9149 72.4008 87.1002C71.9842 86.3259 71.7527 85.4246 71.5849 84.6041C71.5733 84.5752 71.5733 84.5405 71.5733 84.5116C71.5733 84.0956 71.2493 83.8241 70.8269 83.7027C70.6418 83.6449 70.4392 83.6218 70.2425 83.6218C70.04 83.6218 69.8433 83.6507 69.6581 83.7027C69.2415 83.8298 68.9175 84.1014 68.9175 84.5116C68.9175 84.5405 68.9117 84.5636 68.9059 84.5925C68.5819 85.8752 68.1132 86.8402 67.5635 87.5335C66.9213 88.3482 66.1691 88.7931 65.3937 88.9549C64.8267 89.0705 64.2423 89.0416 63.6868 88.8971C63.1024 88.7411 62.5469 88.458 62.0609 88.0882C61.5806 87.7126 61.1814 87.2562 60.9037 86.7419C60.6375 86.2508 60.4813 85.7077 60.4813 85.153C60.4813 83.0498 61.7542 82.3449 63.438 81.484C63.7042 81.3453 63.8893 81.1142 63.9761 80.8542C64.0629 80.5884 64.0455 80.2937 63.9125 80.0221C63.7736 79.7563 63.5421 79.5714 63.2818 79.4848C63.0214 79.4039 62.7321 79.4154 62.4659 79.5426L62.4486 79.5483C60.4639 80.5595 59.2777 81.2991 58.566 83.5005C58.5255 83.6449 58.3867 83.7547 58.2304 83.7489C58.0337 83.7432 57.837 83.72 57.6345 83.6796C57.4377 83.6392 57.241 83.5872 57.0558 83.5178C56.5872 83.356 56.1185 83.1191 55.6787 82.8187C55.2448 82.5182 54.8398 82.16 54.481 81.744C54.1107 81.3164 53.7925 80.8368 53.5494 80.311C53.318 79.8199 53.156 79.2941 53.075 78.7452V78.7336C53.0171 78.3292 53.0055 77.9074 53.0518 77.474C53.0923 77.0696 53.1791 76.6478 53.3238 76.2318L53.3296 76.2144C53.4106 75.9775 53.4048 75.7291 53.3353 75.5095L53.3296 75.498C53.2543 75.2668 53.1039 75.0646 52.8956 74.9202L52.884 74.9086C52.5137 74.6313 52.1781 74.3366 51.883 74.013C51.5821 73.6894 51.316 73.3428 51.0961 72.9845C50.8299 72.5512 50.6216 72.0889 50.4828 71.6152C50.3497 71.1529 50.2803 70.6791 50.286 70.1938C50.2918 69.7026 50.3786 69.1999 50.5522 68.7088C50.72 68.2408 50.963 67.7728 51.2986 67.3163C51.5821 66.9292 51.9293 66.5478 52.3459 66.1838C52.7452 65.8314 53.1965 65.4963 53.7172 65.1785C53.9082 65.0629 54.047 64.9011 54.1396 64.7162L54.1454 64.6989C54.238 64.5082 54.2727 64.2944 54.2438 64.0806C54.238 64.0575 54.238 64.0344 54.238 64.0113V63.9998C54.2091 63.7975 54.1917 63.5953 54.1801 63.3988C54.1686 63.1851 54.1686 62.9713 54.1743 62.7633C54.2033 62.0063 54.3479 61.2957 54.5852 60.6543C54.8397 59.9667 55.1985 59.3485 55.6267 58.8227C55.9796 58.3893 56.3847 58.0253 56.807 57.7422C57.2294 57.4591 57.675 57.2568 58.1321 57.1413C58.3057 57.0893 58.4966 57.1875 58.5487 57.3608C58.9074 58.4933 59.3587 59.204 60.2209 60.0072L60.2556 60.0361C60.4697 60.2325 60.7474 60.325 61.0194 60.3134C61.2913 60.3018 61.5575 60.1921 61.7542 59.9783L61.7716 59.9552C61.9683 59.7414 62.0609 59.464 62.0493 59.1925C62.0377 58.9209 61.922 58.6493 61.7021 58.4413C61.0078 57.8 60.8516 57.4013 60.6433 56.7542C60.4003 56.0088 60.4408 55.2808 60.678 54.6336C60.84 54.1887 61.0946 53.7727 61.4186 53.4087C61.7369 53.0447 62.1245 52.7211 62.5527 52.4727L62.5701 52.4611C63.0098 52.2069 63.4843 52.022 63.9761 51.9295C64.4448 51.8429 64.925 51.8371 65.3937 51.9353C66.0533 52.074 66.7014 52.4207 67.2742 53.0216C67.7776 53.5474 68.2231 54.2754 68.5761 55.2345L68.5819 55.2461C68.7034 55.6217 69.0969 55.8412 69.5597 55.9279C69.7681 55.9683 69.9879 55.9799 70.202 55.9683H70.2078C70.4277 55.9568 70.636 55.9163 70.8327 55.8528C71.1799 55.7372 71.4518 55.5523 71.5155 55.3154V55.1825C71.5155 54.5123 71.9147 53.8016 72.4644 53.218C73.0662 52.5824 73.8704 52.0798 74.5474 51.9411C74.9756 51.8544 75.4096 51.8486 75.832 51.9122C76.2717 51.9815 76.6999 52.1202 77.1049 52.3224L77.1396 52.334C77.5504 52.542 77.9265 52.8078 78.2564 53.1198C78.5804 53.4318 78.8581 53.7843 79.0664 54.1714C79.3962 54.7781 79.5467 55.4714 79.4425 56.2052C79.3499 56.8466 79.3268 57.2511 78.7887 57.8924L78.7829 57.8982C78.592 58.1235 78.5109 58.4067 78.5341 58.684C78.5572 58.9498 78.6787 59.2098 78.8928 59.3947L78.9276 59.4236C79.1532 59.6085 79.4309 59.6836 79.7029 59.6605C79.9691 59.6374 80.2294 59.516 80.4146 59.3022L80.4435 59.2618C80.999 58.6031 81.1784 58.1178 81.433 57.2857ZM94.1394 85.5632C94.0294 85.2917 93.9658 84.997 93.9658 84.685C93.9658 84.373 94.0294 84.0783 94.1394 83.8067C94.2551 83.5352 94.4171 83.2867 94.6254 83.0845L94.637 83.0671C94.7527 82.9516 94.8858 82.8418 95.0304 82.7551C95.1057 82.7089 95.1867 82.6627 95.2735 82.6222V78.9763H90.7834C90.7892 78.7394 90.7892 78.5025 90.7776 78.2598C90.766 78.127 90.8239 77.9941 90.9396 77.9189C91.4025 77.6012 91.8249 77.2718 92.2068 76.9309H96.2918C96.5753 76.9309 96.8299 77.0465 97.0151 77.2314C97.2003 77.4163 97.316 77.6705 97.316 77.9536V82.6569C97.3854 82.6916 97.4548 82.732 97.5243 82.7782C97.6458 82.8591 97.7615 82.9516 97.8657 83.0556L97.883 83.0729C98.0913 83.2809 98.2649 83.5352 98.3806 83.8183C98.4906 84.0898 98.5542 84.3845 98.5542 84.6965C98.5542 84.997 98.4964 85.2859 98.3864 85.5574L98.3806 85.5748C98.2649 85.8579 98.0913 86.1064 97.883 86.3201C97.6747 86.5282 97.4201 86.7015 97.1366 86.8171C96.8647 86.9268 96.5696 86.9904 96.2571 86.9904C95.9504 86.9904 95.6553 86.9268 95.3776 86.8171C95.0941 86.7015 94.8395 86.5282 94.6312 86.3201C94.4287 86.1006 94.2551 85.8464 94.1394 85.5632ZM100.643 73.8628H94.5386C94.6428 73.6375 94.7354 73.4121 94.8164 73.181C94.9784 72.7303 95.0941 72.2738 95.1635 71.8174H100.643C100.684 71.7423 100.724 71.6672 100.77 71.592C100.857 71.4534 100.961 71.3263 101.071 71.2165C101.285 71.0027 101.534 70.8351 101.818 70.7196C102.09 70.6098 102.385 70.5462 102.697 70.5462C102.998 70.5462 103.287 70.604 103.559 70.7138L103.577 70.7196C103.86 70.8351 104.109 71.0085 104.323 71.2165C104.531 71.4245 104.705 71.6787 104.821 71.9618C104.931 72.2334 104.994 72.5281 104.994 72.8401C104.994 73.1463 104.931 73.441 104.821 73.7183C104.705 74.0015 104.531 74.2557 104.323 74.4637C104.115 74.6717 103.86 74.8451 103.577 74.9606C103.305 75.0704 103.01 75.1339 102.697 75.1339C102.396 75.1339 102.107 75.0762 101.835 74.9664L101.818 74.9606C101.534 74.8451 101.285 74.6717 101.071 74.4637C100.961 74.3539 100.863 74.2326 100.776 74.0997L100.765 74.0824C100.724 74.013 100.684 73.9379 100.643 73.8628ZM102.587 68.2697H94.9089C94.7122 67.6226 94.4345 66.9928 94.0873 66.3918L94.0757 66.3745C94.0468 66.3225 94.0179 66.2763 93.9889 66.2243H101.569V59.5507C101.511 59.516 101.453 59.4814 101.395 59.4409C101.279 59.36 101.175 59.2734 101.077 59.1751C100.869 58.9671 100.695 58.7129 100.579 58.4298C100.469 58.1582 100.406 57.8635 100.406 57.5515C100.406 57.2453 100.469 56.9448 100.579 56.6733C100.695 56.3901 100.869 56.1417 101.077 55.9279C101.285 55.7199 101.54 55.5465 101.823 55.431C102.095 55.3212 102.39 55.2576 102.703 55.2576C103.01 55.2576 103.305 55.3212 103.582 55.431C103.866 55.5465 104.121 55.7199 104.329 55.9279C104.537 56.1359 104.711 56.3901 104.826 56.6733C104.936 56.9448 105 57.2395 105 57.5515C105 57.852 104.942 58.1409 104.832 58.4124L104.826 58.4298C104.711 58.7129 104.537 58.9613 104.329 59.1751C104.202 59.3022 104.051 59.4178 103.895 59.516C103.808 59.568 103.71 59.62 103.617 59.6605V67.2412C103.617 67.5243 103.501 67.7786 103.316 67.9635C103.125 68.1541 102.871 68.2697 102.587 68.2697ZM94.5618 63.3353H91.9464C92.0159 62.9539 92.0564 62.5726 92.0737 62.1912C92.0853 61.885 92.0853 61.5846 92.0679 61.2899H93.5376V58.2738C93.4566 58.2333 93.3814 58.1929 93.3062 58.1409C93.1673 58.0542 93.04 57.9502 92.9185 57.8289C92.7102 57.6208 92.5366 57.3666 92.4209 57.0835C92.3109 56.8119 92.2473 56.5173 92.2473 56.211C92.2473 55.9048 92.3109 55.6101 92.4209 55.3328C92.5366 55.0612 92.6986 54.8127 92.9011 54.6047L92.9185 54.5874C93.1268 54.3794 93.3814 54.2061 93.6649 54.0905C93.9369 53.9807 94.232 53.9172 94.5444 53.9172C94.8569 53.9172 95.152 53.9807 95.4239 54.0905C95.6959 54.2061 95.9447 54.3678 96.153 54.5758L96.1703 54.5874C96.3786 54.7954 96.5464 55.0381 96.6621 55.3154L96.6679 55.3328C96.7779 55.6043 96.8415 55.899 96.8415 56.211C96.8415 56.5173 96.7779 56.8177 96.6679 57.0893C96.5522 57.3608 96.3902 57.6093 96.1877 57.8173L96.1703 57.8346C96.0604 57.9444 95.9389 58.0426 95.8 58.1351C95.7306 58.1813 95.6611 58.2218 95.5859 58.2564V62.3126C95.5859 62.5957 95.4702 62.8499 95.285 63.0348C95.0999 63.2197 94.8395 63.3353 94.5618 63.3353ZM54.0123 45.8453C54.2843 45.9551 54.5794 46.0186 54.8918 46.0186C55.2043 46.0186 55.4994 45.9551 55.7713 45.8453C56.0433 45.7297 56.2921 45.568 56.4946 45.3599L56.512 45.3484C56.6277 45.2328 56.7376 45.0999 56.8244 44.9555C56.8707 44.8804 56.917 44.7995 56.9575 44.7128H60.6086V47.8618C61.2508 47.5209 61.9452 47.2725 62.6569 47.128V43.6901C62.6569 43.407 62.5411 43.1528 62.356 42.9679C62.1708 42.783 61.9162 42.6674 61.6327 42.6674H56.9228C56.8881 42.5981 56.8475 42.5287 56.8013 42.4594C56.7203 42.3381 56.6277 42.2225 56.5235 42.1185L56.5062 42.1012C56.2979 41.8931 56.0433 41.7198 55.7598 41.6042C55.4878 41.4945 55.1927 41.4309 54.8803 41.4309C54.5794 41.4309 54.2843 41.4887 54.0181 41.5985L54.0008 41.6042C53.7172 41.7198 53.4684 41.8931 53.2543 42.1012C53.046 42.3092 52.8725 42.5634 52.7567 42.8465C52.6468 43.1181 52.5831 43.4128 52.5831 43.7248C52.5831 44.031 52.6468 44.3257 52.7567 44.603C52.8725 44.8861 53.046 45.1404 53.2543 45.3484C53.48 45.5564 53.7288 45.7297 54.0123 45.8453ZM65.7351 39.3508V47.2436C66.4179 47.44 67.0833 47.752 67.7082 48.2027L67.7776 48.2547C67.7776 48.2374 67.7834 48.2201 67.7834 48.2027V39.3508C67.8586 39.3104 67.9338 39.2699 68.0091 39.2237C68.1479 39.137 68.2752 39.033 68.3852 38.9233C68.5935 38.7095 68.767 38.461 68.8828 38.1779C68.9927 37.9063 69.0564 37.6117 69.0564 37.2996C69.0564 36.9992 68.9985 36.7103 68.8886 36.4387L68.8828 36.4214C68.767 36.1383 68.5935 35.8898 68.3852 35.676C68.1769 35.468 67.9223 35.2947 67.6387 35.1791C67.3668 35.0693 67.0717 35.0058 66.7592 35.0058C66.4526 35.0058 66.1575 35.0693 65.8797 35.1791C65.5962 35.2947 65.3416 35.468 65.1333 35.676C64.925 35.884 64.7514 36.1383 64.6357 36.4214C64.5258 36.693 64.4621 36.9876 64.4621 37.2996C64.4621 37.6001 64.52 37.889 64.6299 38.1606L64.6357 38.1779C64.7514 38.461 64.925 38.7095 65.1333 38.9233C65.2433 39.033 65.3648 39.1313 65.4979 39.2179L65.5094 39.2237C65.5847 39.2699 65.6541 39.3104 65.7351 39.3508ZM71.3303 37.4094V48.9539C71.6081 48.6707 71.9031 48.4223 72.204 48.2027C72.5801 47.9312 72.9736 47.7058 73.3786 47.5325V38.4264H80.0616C80.0964 38.4841 80.1311 38.5419 80.1716 38.5997C80.2526 38.7153 80.3394 38.8193 80.4377 38.9175C80.646 39.1255 80.9006 39.2988 81.1842 39.4144C81.4561 39.5242 81.7512 39.5877 82.0637 39.5877C82.3703 39.5877 82.6712 39.5242 82.9431 39.4144C83.2267 39.2988 83.4813 39.1255 83.6896 38.9175C83.8979 38.7095 84.0714 38.4552 84.1872 38.1721C84.2971 37.9006 84.3608 37.6059 84.3608 37.2939C84.3608 36.9876 84.2971 36.693 84.1872 36.4156C84.0714 36.1325 83.8979 35.8783 83.6896 35.6702C83.4697 35.4622 83.2151 35.2889 82.9316 35.1733C82.6596 35.0636 82.3645 35 82.0579 35C81.757 35 81.4677 35.0578 81.1957 35.1676L81.1784 35.1733C80.8948 35.2889 80.646 35.4622 80.432 35.6702C80.3047 35.7974 80.1889 35.9476 80.0906 36.1036C80.0385 36.1903 79.9864 36.2885 79.9459 36.3809H72.3545C72.0709 36.3809 71.8164 36.4965 71.6312 36.6814C71.446 36.8721 71.3303 37.1263 71.3303 37.4094ZM76.2717 45.4235V47.0067C76.48 47.0182 76.6941 47.0356 76.9024 47.0702C77.3884 47.1396 77.8629 47.2609 78.32 47.4285V46.452H81.3404C81.3809 46.5329 81.4214 46.608 81.4735 46.6831C81.5603 46.8218 81.6644 46.9489 81.7859 47.0702C81.9942 47.2782 82.2488 47.4516 82.5323 47.5671C82.8043 47.6769 83.0994 47.7405 83.406 47.7405C83.7127 47.7405 84.0078 47.6769 84.2855 47.5671C84.5575 47.4516 84.8063 47.2898 85.0146 47.0876L85.032 47.0702C85.2403 46.8622 85.4138 46.608 85.5296 46.3249C85.6395 46.0533 85.7031 45.7586 85.7031 45.4466C85.7031 45.1346 85.6395 44.8399 85.5296 44.5684C85.4138 44.2968 85.2518 44.0483 85.0435 43.8403L85.032 43.823C84.8237 43.615 84.5806 43.4474 84.3029 43.3319L84.2855 43.3261C84.0136 43.2163 83.7185 43.1528 83.406 43.1528C83.0994 43.1528 82.7985 43.2163 82.5265 43.3261C82.2546 43.4416 82.0058 43.6034 81.7975 43.8057L81.7801 43.823C81.6702 43.9328 81.5718 44.0541 81.4792 44.1928C81.433 44.2621 81.3925 44.3315 81.3577 44.4066H77.2959C77.0123 44.4066 76.7577 44.5221 76.5726 44.707C76.3874 44.8861 76.2717 45.1404 76.2717 45.4235ZM46.8606 55.3385C46.9706 55.6101 47.0342 55.9048 47.0342 56.2168C47.0342 56.5288 46.9706 56.8235 46.8606 57.0951C46.7449 57.3666 46.5829 57.6151 46.3746 57.8173L46.363 57.8346C46.2473 57.9502 46.1142 58.06 45.9696 58.1466C45.8943 58.1929 45.8133 58.2391 45.7265 58.2795V61.9255H49.5165V62.1046C49.5165 62.2432 49.5223 62.3877 49.5281 62.5379C49.5396 62.665 49.4818 62.7922 49.3718 62.873C48.8742 63.2255 48.4287 63.5953 48.0236 63.9709H44.714C44.4304 63.9709 44.1758 63.8553 43.9907 63.6704C43.8055 63.4855 43.6898 63.2313 43.6898 62.9482V58.2449C43.6204 58.2102 43.5509 58.1698 43.4815 58.1235C43.36 58.0426 43.2443 57.9502 43.1401 57.8462L43.1228 57.8289C42.9145 57.6208 42.7409 57.3666 42.6252 57.0835C42.5152 56.8119 42.4516 56.5173 42.4516 56.2052C42.4516 55.9048 42.5094 55.6159 42.6194 55.3443L42.6252 55.327C42.7409 55.0439 42.9145 54.7954 43.1228 54.5816C43.3311 54.3736 43.5857 54.2003 43.8692 54.0847C44.1411 53.9749 44.4362 53.9114 44.7487 53.9114C45.0553 53.9114 45.3504 53.9749 45.6282 54.0847C45.9117 54.2003 46.1663 54.3736 46.3746 54.5816C46.5713 54.8012 46.7449 55.0554 46.8606 55.3385ZM40.357 67.039H45.796C45.7034 67.247 45.6224 67.4608 45.5472 67.6688C45.3852 68.1368 45.2694 68.6048 45.2 69.0786H40.357C40.3165 69.1537 40.276 69.2288 40.2297 69.304C40.1429 69.4426 40.0387 69.5697 39.9288 69.6795C39.7147 69.8933 39.4659 70.0609 39.1824 70.1764C38.9104 70.2862 38.6153 70.3498 38.3029 70.3498C38.002 70.3498 37.7127 70.292 37.4408 70.1822L37.4234 70.1764C37.1399 70.0609 36.8911 69.8875 36.677 69.6795C36.4687 69.4715 36.2951 69.2173 36.1794 68.9342C36.0694 68.6626 36.0058 68.3679 36.0058 68.0559C36.0058 67.7497 36.0694 67.455 36.1794 67.1777C36.2951 66.8945 36.4687 66.6403 36.677 66.4323C36.8853 66.2243 37.1399 66.0509 37.4234 65.9354C37.6953 65.8256 37.9904 65.762 38.3029 65.762C38.6038 65.762 38.8931 65.8198 39.165 65.9296L39.1824 65.9354C39.4659 66.0509 39.7147 66.2243 39.9288 66.4323C40.0387 66.5421 40.1371 66.6634 40.2239 66.7963L40.2355 66.8136C40.276 66.8888 40.3165 66.9639 40.357 67.039ZM38.4128 72.6321H45.4893C45.7092 73.3312 46.0274 74.0072 46.4325 74.6486V74.6544L46.444 74.6775H39.4312V81.3511C39.4891 81.3857 39.5469 81.4204 39.6048 81.4609C39.7205 81.5417 39.8247 81.6284 39.923 81.7266C40.1313 81.9347 40.3049 82.1889 40.4206 82.472C40.5306 82.7436 40.5942 83.0382 40.5942 83.3503C40.5942 83.6565 40.5306 83.9569 40.4206 84.2285C40.3049 84.5116 40.1313 84.7601 39.923 84.9739C39.7147 85.1819 39.4601 85.3552 39.1766 85.4708C38.9047 85.5806 38.6096 85.6441 38.2971 85.6441C37.9904 85.6441 37.6953 85.5806 37.4176 85.4708C37.1341 85.3552 36.8795 85.1819 36.6712 84.9739C36.4629 84.7485 36.2893 84.4943 36.1736 84.217C36.0636 83.9454 36 83.6507 36 83.3387C36 83.0382 36.0579 82.7493 36.1678 82.4778L36.1736 82.4604C36.2893 82.1773 36.4629 81.9289 36.6712 81.7151C36.7985 81.588 36.9489 81.4724 37.1052 81.3742C37.1919 81.3222 37.2903 81.2702 37.3829 81.2297V73.649C37.3829 73.3659 37.4986 73.1117 37.6838 72.9268C37.8747 72.7476 38.1293 72.6321 38.4128 72.6321ZM46.4382 77.5665H48.3477C48.284 77.9478 48.2493 78.3234 48.2377 78.6932C48.2262 79.0052 48.232 79.3114 48.2551 79.6119H47.4624V82.628C47.5434 82.6685 47.6186 82.7089 47.6938 82.7609C47.8327 82.8476 47.96 82.9516 48.0815 83.0729C48.2898 83.2809 48.4634 83.5352 48.5791 83.8183C48.6891 84.0898 48.7527 84.3845 48.7527 84.6965C48.7527 85.0085 48.6891 85.2974 48.5791 85.5748C48.4634 85.8464 48.3014 86.0948 48.0989 86.3028L48.0815 86.3201C47.8732 86.5282 47.6186 86.7015 47.3351 86.8171C47.0631 86.9268 46.7681 86.9904 46.4556 86.9904C46.1431 86.9904 45.8481 86.9268 45.5761 86.8171C45.3042 86.7015 45.0553 86.5397 44.847 86.3317L44.8297 86.3201C44.6214 86.1121 44.4536 85.8695 44.3379 85.5921L44.3321 85.5748C44.2221 85.3032 44.1585 85.0085 44.1585 84.6965C44.1585 84.3903 44.2221 84.0898 44.3321 83.8183C44.4478 83.5467 44.6098 83.2983 44.8123 83.0902L44.8297 83.0729C44.9396 82.9631 45.0611 82.8649 45.2 82.7725C45.2694 82.7262 45.3389 82.6858 45.4141 82.6511V78.595C45.4141 78.3118 45.5298 78.0576 45.715 77.8727C45.9001 77.6763 46.1547 77.5665 46.4382 77.5665ZM74.206 101.649V93.5658C73.4828 93.3404 72.8 92.9764 72.1751 92.4622L72.1635 92.4506V101.655C72.0883 101.695 72.0131 101.736 71.9379 101.782C71.799 101.869 71.6717 101.973 71.5618 102.083C71.3535 102.296 71.1799 102.545 71.0642 102.828C70.9542 103.099 70.8906 103.394 70.8906 103.706C70.8906 104.007 70.9484 104.295 71.0584 104.567L71.0642 104.584C71.1799 104.868 71.3535 105.116 71.5618 105.33C71.7701 105.538 72.0247 105.711 72.3082 105.827C72.5801 105.936 72.8752 106 73.1877 106C73.4943 106 73.7894 105.936 74.0672 105.827C74.3507 105.711 74.6053 105.538 74.8136 105.33C75.0219 105.122 75.1955 104.868 75.3112 104.584C75.4211 104.313 75.4848 104.018 75.4848 103.706C75.4848 103.406 75.4269 103.117 75.317 102.845L75.3112 102.828C75.1955 102.545 75.0219 102.296 74.8136 102.083C74.7037 101.973 74.5821 101.875 74.4491 101.788L74.4317 101.776C74.3565 101.73 74.2813 101.69 74.206 101.649ZM68.605 103.591V91.9421C68.362 92.1906 68.1074 92.4102 67.8413 92.6124C67.4304 92.9244 67.0023 93.1728 66.5567 93.3693V102.579H59.8737C59.839 102.522 59.8043 102.464 59.7638 102.406C59.6828 102.291 59.596 102.187 59.4976 102.088C59.2893 101.88 59.0347 101.707 58.7512 101.591C58.4792 101.482 58.1842 101.418 57.8717 101.418C57.565 101.418 57.2642 101.482 56.9922 101.591C56.7087 101.707 56.4599 101.88 56.2458 102.088C56.0375 102.296 55.8639 102.551 55.7482 102.834C55.6382 103.105 55.5746 103.4 55.5746 103.712C55.5746 104.018 55.6382 104.313 55.7482 104.59C55.8639 104.873 56.0375 105.128 56.2458 105.336C56.4541 105.544 56.7087 105.717 56.9922 105.832C57.2642 105.942 57.5592 106.006 57.8717 106.006C58.1726 106.006 58.4619 105.948 58.7338 105.838L58.7512 105.832C59.0347 105.717 59.2835 105.544 59.4976 105.336C59.6249 105.208 59.7406 105.058 59.839 104.902C59.8911 104.816 59.9431 104.717 59.9837 104.625H67.5751C67.8586 104.625 68.1132 104.509 68.2984 104.324C68.4893 104.128 68.605 103.874 68.605 103.591ZM63.6637 95.5765V93.8951C63.2123 93.872 62.761 93.8027 62.3213 93.6929C62.084 93.6351 61.8468 93.56 61.6153 93.4791V94.5596H58.595C58.5545 94.4787 58.514 94.4036 58.4619 94.3284C58.3751 94.1898 58.2709 94.0627 58.1494 93.9413C57.9411 93.7333 57.6865 93.56 57.403 93.4444C57.1311 93.3346 56.836 93.2711 56.5293 93.2711C56.2226 93.2711 55.9275 93.3346 55.6498 93.4444C55.3779 93.56 55.1291 93.7218 54.9208 93.924L54.9034 93.9355C54.6951 94.1436 54.5215 94.3978 54.4058 94.6809C54.2958 94.9525 54.2322 95.2471 54.2322 95.5592C54.2322 95.8712 54.2958 96.1659 54.4058 96.4374C54.5215 96.709 54.6835 96.9574 54.8918 97.1654L54.9034 97.1828C55.1117 97.3908 55.3547 97.5583 55.6325 97.6739L55.6498 97.6797C55.9218 97.7895 56.2169 97.853 56.5293 97.853C56.836 97.853 57.1311 97.7895 57.4088 97.6797C57.6808 97.5641 57.9296 97.4023 58.1379 97.2001L58.1552 97.1828C58.2652 97.073 58.3635 96.9517 58.4561 96.813C58.5024 96.7436 58.5429 96.6743 58.5776 96.5992H62.6395C62.923 96.5992 63.1776 96.4836 63.3628 96.2987C63.5479 96.1138 63.6637 95.8596 63.6637 95.5765Z" fill="white"/>
</g>
<defs>
<clipPath id="clip0_218_251">
<rect width="69" height="71" fill="white" transform="translate(36 35)"/>
</clipPath>
</defs>
</svg>
