<svg width="141" height="141" viewBox="0 0 141 141" fill="none" xmlns="http://www.w3.org/2000/svg">
<circle cx="70.5" cy="70.5" r="70.5" fill="#91FF7A"/>
<g clip-path="url(#clip0_218_251)">
<mask id="mask0_218_251" style="mask-type:luminance" maskUnits="userSpaceOnUse" x="44" y="44" width="54" height="54">
<path d="M98 44H44V98H98V44Z" fill="white"/>
</mask>
<g mask="url(#mask0_218_251)">
<path d="M53.0695 47.5307C53.9819 45.8231 56.5181 45.8231 57.4305 47.5307L59.5906 51.5734C59.6152 51.6194 59.6548 51.6564 59.7034 51.6786L62.8506 53.1185C64.7164 53.9721 64.7164 56.5279 62.8506 57.3815L59.7034 58.8214C59.6548 58.8436 59.6152 58.8806 59.5906 58.9266L57.4305 62.9693C56.5181 64.6769 53.9819 64.6769 53.0695 62.9693L50.9094 58.9266C50.8848 58.8806 50.8452 58.8436 50.7966 58.8214L47.6494 57.3815C45.7835 56.5279 45.7835 53.9721 47.6494 53.1185L50.7966 51.6786C50.8452 51.6564 50.8848 51.6194 50.9094 51.5734L53.0695 47.5307Z" stroke="white" stroke-width="3"/>
<path d="M74.4317 54.4135C75.2374 52.5289 78.0126 52.5289 78.8183 54.4134L84.6352 68.0183C84.6584 68.0721 84.702 68.1155 84.7572 68.1396L94.3523 72.2951C96.216 73.1024 96.216 75.6476 94.3523 76.4549L84.7572 80.6104C84.702 80.6345 84.6584 80.6779 84.6352 80.7317L78.8183 94.3366C78.0126 96.2212 75.2374 96.2212 74.4317 94.3366L68.6148 80.7317C68.5916 80.6779 68.5479 80.6345 68.4928 80.6104L58.8978 76.4549C57.0341 75.6476 57.0341 73.1024 58.8978 72.2951L68.4928 68.1396C68.5479 68.1155 68.5916 68.0721 68.6148 68.0183L74.4317 54.4135Z" stroke="white" stroke-width="3"/>
</g>
</g>
<defs>
<clipPath id="clip0_218_251">
<rect width="54" height="54" fill="white" transform="translate(44 44)"/>
</clipPath>
</defs>
</svg>
