<svg width="141" height="141" viewBox="0 0 141 141" fill="none" xmlns="http://www.w3.org/2000/svg">
<circle cx="70.5" cy="70.5" r="70.5" fill="#91FF7A"/>
<path d="M91.25 82.25V53C91.25 51.7574 90.2427 50.75 89 50.75H53C51.7574 50.75 50.75 51.7574 50.75 53V82.25M59.7786 82.25C60.1937 76.4148 65.059 71.81 70.9998 71.81C76.9407 71.81 81.8061 76.4148 82.2212 82.25M55.2029 91.25H86.797C91.7416 91.25 95.75 87.2416 95.75 82.297C95.75 82.2712 95.7288 82.25 95.703 82.25H74.0938V82.9999C74.0938 84.2426 73.0864 85.2499 71.8438 85.2499H70.1562C68.9136 85.2499 67.9062 84.2426 67.9062 82.9999V82.25H46.2971C46.2711 82.25 46.25 82.2712 46.25 82.297C46.25 87.2416 50.2583 91.25 55.2029 91.25ZM76.0623 62.5625C76.0623 65.3584 73.7958 67.625 70.9998 67.625C68.2039 67.625 65.9373 65.3584 65.9373 62.5625C65.9373 59.7666 68.2039 57.5 70.9998 57.5C73.7958 57.5 76.0623 59.7666 76.0623 62.5625Z" stroke="white" stroke-width="4" stroke-linecap="round" stroke-linejoin="round"/>
</svg>
