<svg width="141" height="141" viewBox="0 0 141 141" fill="none" xmlns="http://www.w3.org/2000/svg">
<circle cx="70.5" cy="70.5" r="70.5" fill="#91FF7A"/>
<g clip-path="url(#clip0_218_249)">
<mask id="mask0_218_249" style="mask-type:luminance" maskUnits="userSpaceOnUse" x="44" y="44" width="54" height="54">
<path d="M98 44H44V98H98V44Z" fill="white"/>
</mask>
<g mask="url(#mask0_218_249)">
<path d="M64.25 57.5V86.75M77.75 86.75V57.9204C77.75 57.7407 77.95 57.6343 78.0967 57.7381C82.1056 60.5739 84.5 65.1847 84.5 70.1126V76.2393C84.5 76.4524 84.3274 76.625 84.1143 76.625H77.75M68.75 57.5V64.25C68.75 66.7353 66.7353 68.75 64.25 68.75C61.7647 68.75 59.75 66.7353 59.75 64.25V57.5M95.75 71C95.75 84.669 84.669 95.75 71 95.75C57.331 95.75 46.25 84.669 46.25 71C46.25 57.331 57.331 46.25 71 46.25C84.669 46.25 95.75 57.331 95.75 71Z" stroke="white" stroke-width="3.5" stroke-linecap="round"/>
</g>
</g>
<defs>
<clipPath id="clip0_218_249">
<rect width="54" height="54" fill="white" transform="translate(44 44)"/>
</clipPath>
</defs>
</svg>
