<svg width="141" height="141" viewBox="0 0 141 141" fill="none" xmlns="http://www.w3.org/2000/svg">
<circle cx="70.5" cy="70.5" r="70.5" fill="#91FF7A"/>
<g clip-path="url(#clip0_218_248)">
<mask id="mask0_218_248" style="mask-type:luminance" maskUnits="userSpaceOnUse" x="44" y="44" width="54" height="54">
<path d="M98 44H44V98H98V44Z" fill="white"/>
</mask>
<g mask="url(#mask0_218_248)">
<path d="M77.1873 95.75H64.8123M77.1873 95.75H85.8498M77.1873 95.75V82.25M64.8123 95.75H56.1498M64.8123 95.75V82.25M46.25 64.25H58.4808C58.5687 64.25 58.6485 64.1988 58.6852 64.1189L62.5556 55.695C62.6359 55.5202 62.8842 55.5202 62.9645 55.695L70.8402 72.8369C70.9181 73.0061 71.1562 73.0128 71.2435 72.8484L75.8114 64.25L77.9374 60.1367C78.0213 59.9745 78.2533 59.9745 78.3372 60.1367L80.4005 64.1283C80.439 64.2031 80.5161 64.25 80.6003 64.25H95.75M48.5 82.25H93.5C94.7427 82.25 95.75 81.2427 95.75 80V48.5C95.75 47.2574 94.7427 46.25 93.5 46.25H48.5C47.2574 46.25 46.25 47.2574 46.25 48.5V80C46.25 81.2427 47.2574 82.25 48.5 82.25Z" stroke="white" stroke-width="4" stroke-linecap="round"/>
</g>
</g>
<defs>
<clipPath id="clip0_218_248">
<rect width="54" height="54" fill="white" transform="translate(44 44)"/>
</clipPath>
</defs>
</svg>
