<svg width="141" height="141" viewBox="0 0 141 141" fill="none" xmlns="http://www.w3.org/2000/svg">
<circle cx="70.5" cy="70.5" r="70.5" fill="#4E9F3D"/>
<path d="M95.8275 48.5H93.58C92.5445 48.5 91.6423 49.2045 91.3927 50.2079L83.6228 81.4557C82.8493 84.5661 80.0525 86.75 76.8427 86.75H53.0106M53.0106 86.75C51.1437 86.75 49.6303 88.2611 49.6303 90.125C49.6303 91.9889 51.1437 93.5 53.0105 93.5C54.8774 93.5 56.3908 91.9889 56.3908 90.125C56.3908 88.2611 54.8774 86.75 53.0106 86.75ZM57.5176 64.25L59.7711 73.25M77.7994 73.25L80.0527 64.25M68.7852 64.25V73.25M89.2476 57.5H46.5529C46.4019 57.5 46.2937 57.6453 46.337 57.7896L51.9988 76.6326C52.5993 78.6313 54.4417 80 56.5316 80H83.7981C83.9018 80 83.992 79.9293 84.017 79.829L89.4663 57.7789C89.5014 57.6371 89.3938 57.5 89.2476 57.5ZM77.7994 90.125C77.7994 91.9889 76.2858 93.5 74.419 93.5C72.5521 93.5 71.0388 91.9889 71.0388 90.125C71.0388 88.2611 72.5521 86.75 74.419 86.75C76.2858 86.75 77.7994 88.2611 77.7994 90.125Z" stroke="white" stroke-width="4" stroke-linecap="round"/>
</svg>
